<svg width="38" height="23" viewBox="0 0 38 23" fill="none" xmlns="http://www.w3.org/2000/svg">
<rect x="14.754" y="3.75" width="8.48789" height="15.4984" fill="#ECEDEE"/>
<path d="M15.2938 11.4981C15.2906 8.47327 16.6569 5.61506 18.9988 3.74749C15.0216 0.571698 9.3101 1.03428 5.87826 4.81014C2.44642 8.586 2.44642 14.4074 5.87826 18.1833C9.3101 21.9592 15.0216 22.4217 18.9988 19.2459C16.6577 17.379 15.2914 14.5219 15.2938 11.4981Z" fill="#939DAA"/>
<path d="M34.6957 11.4991C34.6956 15.2727 32.5749 18.7149 29.2343 20.364C25.8936 22.013 21.9196 21.5793 18.9998 19.247C21.34 17.3784 22.7063 14.5218 22.7063 11.4978C22.7063 8.47375 21.34 5.61711 18.9998 3.74855C21.9196 1.41628 25.8936 0.982557 29.2343 2.63157C32.5749 4.28059 34.6956 7.72285 34.6957 11.4964V11.4991Z" fill="#939DAA"/>
<path fill-rule="evenodd" clip-rule="evenodd" d="M33.7654 17.3188V17.8024H33.7088V17.3188H33.5714V17.2188H33.892V17.3188H33.7654ZM34.3909 17.2188V17.8024L34.3343 17.8066V17.3647L34.2292 17.744H34.1565L34.0514 17.3647V17.8024H33.9813V17.2188H34.0676L34.1807 17.6356L34.2939 17.2188H34.3909Z" fill="#7E849B"/>
</svg>
