<svg width="24" height="24" viewBox="0 0 24 24" fill="none" xmlns="http://www.w3.org/2000/svg">
  <path
    d="M11.999 16.4999V9.74992M11.999 9.74992L14.999 12.7499M11.999 9.74992L8.99903 12.7499M6.74903 19.4999C5.67847 19.5011 4.64255 19.1205 3.82733 18.4266C3.01211 17.7327 2.47099 16.7709 2.30114 15.7138C2.1313 14.6568 2.34386 13.5739 2.90065 12.6595C3.45745 11.7451 4.32199 11.0592 5.33903 10.7249C5.07773 9.38609 5.34779 7.99812 6.09202 6.85494C6.83624 5.71175 7.9962 4.90312 9.32625 4.60027C10.6563 4.29743 12.052 4.52415 13.2178 5.23244C14.3836 5.94072 15.2279 7.07494 15.572 8.39492C16.104 8.2219 16.6738 8.20108 17.2171 8.33482C17.7603 8.46856 18.2553 8.75153 18.6461 9.15176C19.037 9.552 19.3082 10.0536 19.429 10.5998C19.5499 11.146 19.5156 11.7152 19.33 12.2429C20.1487 12.5556 20.8321 13.145 21.2616 13.9089C21.6911 14.6727 21.8398 15.5628 21.6817 16.4248C21.5236 17.2868 21.0687 18.0662 20.3961 18.6279C19.7234 19.1896 18.8754 19.4981 17.999 19.4999H6.74903Z"
    stroke="currentColor" stroke-width="1.5" stroke-linecap="round" stroke-linejoin="round" />
</svg>